<?xml version="1.0" encoding="utf-8"?>
<!-- Generator: Adobe Illustrator 23.0.1, SVG Export Plug-In . SVG Version: 6.00 Build 0)  -->
<svg version="1.1" id="airport-15" xmlns="http://www.w3.org/2000/svg" xmlns:xlink="http://www.w3.org/1999/xlink" x="0px" y="0px"
	 width="24px" height="24px" viewBox="0 0 24 24" enable-background="new 0 0 24 24" xml:space="preserve">
<g id="tdRYxZ.tif">
	<g>
		<path fill="#B1BB24" d="M8.4,10.31c0.4-0.15,0.8-0.28,1.21-0.43c1.63-0.56,3.24-1.13,4.86-1.69c0.09-0.03,0.19-0.05,0.29-0.05
			c0.41,0,0.83,0,1.24,0c0.51-0.01,1.01,0.03,1.52,0.13c0.64,0.13,1.28,0.25,1.96,0.37c-0.05,0.04-0.08,0.07-0.12,0.09
			c-0.61,0.35-1.23,0.69-1.84,1.04c-0.79,0.45-1.56,0.89-2.35,1.33c-0.61,0.35-1.21,0.69-1.83,1.04c-0.72,0.41-1.45,0.83-2.17,1.24
			c-0.28,0.16-0.57,0.32-0.85,0.47c-0.29-0.55-0.6-1.11-0.89-1.65c-0.24-0.41-0.48-0.83-0.71-1.25C8.62,10.73,8.51,10.52,8.4,10.31z
			"/>
		<path fill="#AAC128" d="M22.54,9.25c0.04,0,0.07,0.01,0.11,0.01c-0.09,0.49-0.19,0.99-0.28,1.47c-0.25,1.35-0.52,2.69-0.77,4.04
			c-0.15,0.76-0.29,1.51-0.44,2.27c0,0.01-0.01,0.03-0.01,0.04c-0.07-0.01-0.12-0.01-0.19-0.04c-0.53-0.19-1.07-0.37-1.6-0.57
			c-0.51-0.19-1.01-0.36-1.52-0.55c-0.13-0.05-0.28-0.08-0.43-0.12c0.17-0.49,0.35-0.99,0.51-1.48c0.17-0.51,0.35-1,0.52-1.51
			c0.01-0.04,0.04-0.07,0.05-0.11c0.01-0.01,0.01-0.04,0.03-0.05l0,0c0.13-0.11,0.27-0.2,0.4-0.31c0.48-0.41,0.96-0.83,1.44-1.24
			c0.57-0.49,1.13-0.99,1.71-1.47C22.22,9.51,22.38,9.37,22.54,9.25z"/>
		<path fill="#8FB126" d="M9.19,14.88c0.45-0.27,0.91-0.55,1.37-0.81c0.61-0.36,1.23-0.72,1.85-1.07c0.08,0.15,0.15,0.29,0.23,0.44
			c0.33,0.59,0.68,1.16,1.01,1.73c0.21,0.37,0.43,0.75,0.65,1.13c-0.28,0.24-0.56,0.49-0.84,0.73c-0.29,0.25-0.57,0.49-0.87,0.73
			c-0.08,0.07-0.15,0.13-0.23,0.2c-0.03,0.03-0.07,0.04-0.09,0.04c-0.41,0-0.84,0-1.25,0c-0.01-0.04-0.01-0.07-0.03-0.11
			c-0.17-0.29-0.35-0.59-0.51-0.88C10.17,16.5,9.87,16,9.56,15.48C9.45,15.28,9.32,15.08,9.19,14.88z"/>
		<path fill="#A1C62B" d="M17.41,15.8c0.15,0.04,0.28,0.07,0.43,0.12c0.51,0.17,1.01,0.36,1.52,0.55c0.53,0.19,1.07,0.39,1.6,0.57
			c0.05,0.03,0.12,0.03,0.19,0.04c-0.05,0.28-0.11,0.56-0.16,0.84c-0.01,0.04-0.05,0.08-0.09,0.11c-0.95,0.55-1.89,1.09-2.83,1.64
			c-0.77,0.45-1.55,0.89-2.32,1.35c-0.04,0.03-0.09,0.04-0.17,0.08c0.07-0.2,0.12-0.37,0.17-0.53c0.28-0.79,0.55-1.59,0.83-2.37
			C16.85,17.38,17.13,16.58,17.41,15.8z"/>
		<path fill="#8CA722" d="M14.31,16.3c-0.21-0.37-0.43-0.75-0.65-1.13c-0.33-0.57-0.68-1.16-1.01-1.73
			c-0.08-0.15-0.16-0.29-0.23-0.44c0.32-0.2,0.64-0.39,0.97-0.59c0.52-0.31,1.04-0.6,1.56-0.91c0.2-0.12,0.41-0.23,0.61-0.35
			c0.03,0.05,0.04,0.12,0.08,0.17c0.11,0.17,0.21,0.35,0.31,0.53c0.39,0.67,0.79,1.33,1.17,2.01c-0.56,0.49-1.12,0.97-1.69,1.47
			C15.07,15.65,14.68,15.97,14.31,16.3z"/>
		<path fill="#A9C228" d="M14.77,7.56c-0.37-0.07-0.73-0.13-1.11-0.2c-0.69-0.13-1.39-0.27-2.08-0.4c-0.01,0-0.03-0.01-0.04-0.01
			c0.23-1.04,0.44-2.09,0.67-3.13c0.05-0.28,0.11-0.57,0.17-0.87c1.04,0.36,2.08,0.72,3.12,1.08c0.01,0,0.03,0.01,0.04,0.03
			c-0.05,0.28-0.12,0.56-0.17,0.85C15.23,5.6,15.08,6.29,14.93,7C14.87,7.19,14.81,7.37,14.77,7.56z"/>
		<path fill="#AEBD25" d="M14.77,7.56c0.05-0.19,0.11-0.39,0.15-0.57c0.15-0.69,0.29-1.39,0.44-2.09c0.05-0.28,0.12-0.56,0.17-0.85
			c0.43,0.15,0.87,0.29,1.29,0.44c1.25,0.44,2.51,0.88,3.77,1.31c0.11,0.04,0.13,0.11,0.13,0.2c-0.41,0.15-0.83,0.29-1.24,0.44
			c-1.07,0.37-2.12,0.73-3.19,1.09c-0.2,0.07-0.39,0.15-0.59,0.21C15.4,7.69,15.09,7.63,14.77,7.56z"/>
		<path fill="#ACBF27" d="M8.4,10.31c0.11,0.21,0.21,0.43,0.33,0.64c0.23,0.43,0.47,0.84,0.71,1.25c0.31,0.55,0.6,1.09,0.91,1.64
			c-0.53,0.31-1.05,0.61-1.59,0.91c-0.31,0.17-0.61,0.35-0.93,0.53c-0.05,0.03-0.11,0.05-0.16,0.07c-0.01-0.05-0.04-0.11-0.07-0.15
			c-0.4-0.72-0.8-1.43-1.2-2.15c0.13-0.25,0.27-0.49,0.41-0.75c0.32-0.56,0.64-1.11,0.96-1.67c0.09-0.12,0.17-0.21,0.33-0.24
			C8.2,10.39,8.3,10.33,8.4,10.31z"/>
		<path fill="#93BC29" d="M9.19,14.88c0.12,0.2,0.25,0.4,0.37,0.6c0.31,0.52,0.61,1.03,0.91,1.55c0.17,0.29,0.35,0.59,0.51,0.88
			c0.01,0.03,0.01,0.07,0.03,0.11c-0.04,0-0.08,0-0.12,0c-1.59,0-3.19,0-4.77,0c-0.04,0-0.08,0-0.12,0
			c-0.07-0.13-0.12-0.27-0.19-0.39c-0.11-0.2-0.21-0.39-0.32-0.57c0.57-0.35,1.16-0.68,1.73-1.03c0.65-0.37,1.29-0.76,1.95-1.13
			C9.17,14.88,9.19,14.88,9.19,14.88z"/>
		<path fill="#889D1F" d="M17.13,13.88c-0.39-0.67-0.79-1.33-1.17-2.01c-0.11-0.17-0.21-0.35-0.31-0.53
			c-0.03-0.05-0.05-0.11-0.08-0.17c0.43-0.25,0.85-0.51,1.28-0.76c0.95-0.55,1.88-1.11,2.83-1.64c0.05-0.03,0.12-0.03,0.19-0.03
			c-0.09,0.25-0.19,0.51-0.27,0.76c-0.19,0.55-0.39,1.11-0.57,1.65c-0.07,0.09-0.15,0.2-0.21,0.29c-0.39,0.65-0.76,1.32-1.17,1.96
			C17.51,13.6,17.29,13.72,17.13,13.88z"/>
		<path fill="#A1C62C" d="M12.39,2.95c-0.07,0.29-0.12,0.59-0.17,0.87c-0.23,1.04-0.44,2.09-0.67,3.13
			c-0.36-0.07-0.72-0.13-1.08-0.2C9.93,6.65,9.41,6.56,8.9,6.45c-0.03,0-0.04-0.01-0.07-0.03c0.05-0.27,0.11-0.53,0.15-0.8
			C9.03,5.32,9.09,5,9.15,4.69c0.59-0.33,1.17-0.68,1.77-1.01c0.41-0.24,0.83-0.48,1.23-0.72C12.24,2.91,12.31,2.91,12.39,2.95z"/>
		<path fill="#769F38" d="M15.72,7.75c0.2-0.07,0.39-0.15,0.59-0.21c1.05-0.37,2.12-0.73,3.19-1.09C19.9,6.29,20.32,6.15,20.73,6
			c0.01,0.03,0.03,0.05,0.03,0.08c-0.27,0.77-0.53,1.55-0.8,2.32c-0.01,0.05-0.05,0.09-0.08,0.13c-0.37-0.07-0.75-0.13-1.12-0.2
			c-0.97-0.19-1.95-0.37-2.92-0.56C15.81,7.77,15.76,7.76,15.72,7.75z"/>
		<path fill="#608033" d="M19.01,11.15c0.19-0.55,0.37-1.11,0.57-1.65c0.09-0.25,0.19-0.51,0.27-0.76c0.45,0.08,0.91,0.17,1.36,0.25
			c0.44,0.08,0.87,0.16,1.31,0.24c0.01,0,0.03,0.01,0.04,0.01c-0.16,0.13-0.32,0.25-0.48,0.39c-0.57,0.49-1.15,0.97-1.71,1.47
			c-0.48,0.41-0.96,0.83-1.44,1.24c-0.13,0.11-0.27,0.2-0.4,0.31c0.05-0.16,0.09-0.31,0.15-0.47c0.11-0.29,0.21-0.59,0.32-0.88
			C19,11.25,19,11.2,19.01,11.15z"/>
		<path fill="#647C2E" d="M23.16,6.69c0.01,0,0.04,0,0.05,0c0.07,0.03,0.12,0.05,0.19,0.08c-0.07,0.37-0.15,0.73-0.21,1.11
			c-0.08,0.39-0.15,0.77-0.23,1.17c0,0.03-0.08,0.07-0.11,0.07C22.24,9.01,21.61,8.89,21,8.77c-0.33-0.07-0.67-0.13-1-0.2
			c0.04-0.04,0.09-0.08,0.13-0.11c0.2-0.12,0.39-0.23,0.59-0.35c0.51-0.29,1.03-0.6,1.53-0.89C22.56,7.05,22.86,6.87,23.16,6.69z"/>
		<path fill="#A5C429" d="M6.42,13.06c0.4,0.72,0.8,1.43,1.2,2.15c0.03,0.04,0.04,0.09,0.07,0.15c-0.21,0.12-0.41,0.25-0.63,0.37
			c-0.29,0.16-0.59,0.33-0.88,0.49c-0.01-0.04-0.01-0.07-0.04-0.11c-0.24-0.43-0.48-0.87-0.73-1.29c0.11-0.19,0.21-0.39,0.32-0.57
			c0.21-0.36,0.41-0.73,0.63-1.09C6.36,13.12,6.39,13.09,6.42,13.06z"/>
		<path fill="#6B9036" d="M23.16,6.69c-0.29,0.17-0.6,0.36-0.89,0.53c-0.51,0.29-1.03,0.6-1.53,0.89c-0.2,0.12-0.4,0.23-0.59,0.35
			C20.09,8.49,20.04,8.53,20,8.57c-0.04-0.01-0.08-0.03-0.12-0.03c0.03-0.04,0.07-0.09,0.08-0.13c0.27-0.77,0.53-1.55,0.8-2.32
			c0.04-0.07,0.07-0.13,0.11-0.19c0.03,0,0.04,0.01,0.07,0.01c0.75,0.25,1.48,0.51,2.23,0.76C23.16,6.68,23.16,6.68,23.16,6.69z"/>
		<path fill="#97C82E" d="M5.48,17.04c0.11,0.19,0.21,0.39,0.32,0.57c0.07,0.13,0.13,0.25,0.19,0.39c-0.51,0-1.01,0-1.52,0.01
			c-0.12,0-0.24,0.03-0.35,0.09C3.04,18.73,1.98,19.37,0.91,20c-0.21,0.13-0.44,0.25-0.65,0.39c-0.05,0.03-0.11,0.05-0.16,0.05
			c-0.11-0.01-0.13-0.15-0.05-0.21C0.15,20.13,0.28,20.06,0.4,20c0.61-0.36,1.24-0.72,1.85-1.08c0.63-0.37,1.27-0.73,1.89-1.11
			c0.41-0.24,0.84-0.49,1.25-0.73C5.44,17.05,5.47,17.05,5.48,17.04z"/>
		<path fill="#9FC72C" d="M5.4,14.82c0.24,0.43,0.48,0.87,0.73,1.29c0.01,0.03,0.03,0.07,0.04,0.11c-0.77,0.44-1.53,0.88-2.31,1.32
			c-0.01-0.01-0.01-0.01-0.03-0.03c0.13-0.23,0.27-0.45,0.4-0.69c0.32-0.56,0.65-1.13,0.99-1.69C5.27,15.02,5.34,14.92,5.4,14.82z"
			/>
		<path fill="#9BCA2D" d="M9.15,4.71C9.09,5.01,9.04,5.33,8.97,5.64c-0.05,0.27-0.11,0.53-0.15,0.8C8.58,6.4,8.32,6.35,8.07,6.31
			C7.7,6.23,7.31,6.15,6.94,6.08c-0.04,0-0.07-0.03-0.12-0.04c0.31-0.17,0.6-0.35,0.89-0.51C8.18,5.27,8.63,5,9.09,4.73
			C9.11,4.72,9.13,4.71,9.15,4.71z"/>
		<path fill="#B0BB24" d="M23.16,6.67c-0.75-0.25-1.48-0.51-2.23-0.76c-0.03-0.01-0.04-0.01-0.07-0.01
			c0.03-0.07,0.04-0.15,0.07-0.24c0.76,0.27,1.51,0.52,2.27,0.79C23.18,6.52,23.17,6.6,23.16,6.67z"/>
		<path fill="#87912A" d="M23.4,6.77c-0.07-0.03-0.12-0.05-0.19-0.08c0.21-0.12,0.41-0.25,0.63-0.36c0.04-0.03,0.13-0.03,0.15,0
			c0.04,0.07,0,0.12-0.07,0.16C23.74,6.57,23.57,6.68,23.4,6.77z"/>
		<path fill="#608033" d="M18.52,12.65c-0.01,0.01-0.01,0.04-0.03,0.05C18.5,12.69,18.52,12.66,18.52,12.65z"/>
	</g>
</g>
</svg>
