<?xml version="1.0" encoding="utf-8"?>
<!-- Generator: Adobe Illustrator 23.0.1, SVG Export Plug-In . SVG Version: 6.00 Build 0)  -->
<svg version="1.1" id="attraction-11" xmlns="http://www.w3.org/2000/svg" xmlns:xlink="http://www.w3.org/1999/xlink" x="0px"
	 y="0px" width="11px" height="11px" viewBox="0 0 11 11" enable-background="new 0 0 11 11" xml:space="preserve">
<path id="rect7143" fill="#8E24AA" d="M4.5,1.5c0,0-0.5,0-0.7,0.5L3.5,2.5H1c-0.6,0-1,0.4-1,1v5c0,0.6,0.4,1,1,1h9c0.6,0,1-0.4,1-1
	v-5c0-0.6-0.4-1-1-1H7.5L7.2,2C7,1.5,6.5,1.5,6.5,1.5H4.5z M5.5,3.5C6.9,3.5,8,4.6,8,6S6.9,8.5,5.5,8.5S3,7.4,3,6S4.1,3.5,5.5,3.5z
	 M5.5,5c-0.6,0-1,0.4-1,1s0.4,1,1,1s1-0.4,1-1S6.1,5,5.5,5z"/>
</svg>
