<?xml version="1.0" encoding="utf-8"?>
<!-- Generator: Adobe Illustrator 23.0.1, SVG Export Plug-In . SVG Version: 6.00 Build 0)  -->
<svg version="1.1" id="bicycle-11" xmlns="http://www.w3.org/2000/svg" xmlns:xlink="http://www.w3.org/1999/xlink" x="0px" y="0px"
	 width="11px" height="11px" viewBox="0 0 11 11" enable-background="new 0 0 11 11" xml:space="preserve">
<path id="path4804" fill="#FDD835" d="M6.5,1.5c-0.68-0.01-0.68,1.01,0,1H7v0.71L4.25,4.78L3.74,3.5h0.71c0.68,0.01,0.68-1.01,0-1
	H2.43c-0.68-0.01-0.68,1.01,0,1h0.23l0.43,1.08C2.9,4.53,2.7,4.5,2.5,4.5C1.13,4.5,0,5.63,0,7s1.13,2.5,2.5,2.5S5,8.37,5,7
	c0-0.47-0.14-0.91-0.37-1.29L7.1,4.3l0.4,0.41C6.62,5.1,6,5.98,6,7c0,1.37,1.13,2.5,2.5,2.5S11,8.37,11,7c0-1.3-1-2.36-2.27-2.48
	L8,3.79V2c0-0.28-0.22-0.5-0.5-0.5H6.5z M2.5,5.5C3.33,5.5,4,6.17,4,7S3.33,8.5,2.5,8.5S1,7.83,1,7S1.67,5.5,2.5,5.5z M8.46,5.5
	L8.46,5.5c0.03,0,0.06,0,0.09,0C9.36,5.53,10,6.18,10,7c0,0.83-0.67,1.5-1.5,1.5S7,7.83,7,7C7,6.18,7.64,5.53,8.46,5.5L8.46,5.5z"/>
</svg>
