<?xml version="1.0" encoding="utf-8"?>
<!-- Generator: Adobe Illustrator 23.0.1, SVG Export Plug-In . SVG Version: 6.00 Build 0)  -->
<svg version="1.1" id="bus-11" xmlns="http://www.w3.org/2000/svg" xmlns:xlink="http://www.w3.org/1999/xlink" x="0px" y="0px"
	 width="11px" height="11px" viewBox="0 0 11 11" enable-background="new 0 0 11 11" xml:space="preserve">
<path id="path8043" fill="#689F38" d="M3,0C2,0,1,0.53,1,2v4v3.5c0,0,0,0.5,0.5,0.5L2,10.02v0.48c0,0,0,0.5,0.5,0.5H3
	c0,0,0.5,0,0.5-0.5v-0.48l4-0.02v0.5c0,0,0,0.5,0.5,0.5h0.5C9,11,9,10.5,9,10.5v-0.48L9.5,10c0,0,0.5,0,0.5-0.5V6V2c0-1.5-1-2-2-2H3
	z M3.75,1h3.5C7.39,1,7.5,1.11,7.5,1.25S7.39,1.5,7.25,1.5h-3.5C3.61,1.5,3.5,1.39,3.5,1.25S3.61,1,3.75,1z M3,2h5c1,0,1,1,1,1v2
	c0,0,0,1-1,1H3C2,6,2,5,2,5V3C2,3,2,2,3,2z M2.75,7.5c0.41,0,0.75,0.34,0.75,0.75C3.5,8.66,3.16,9,2.75,9S2,8.66,2,8.25
	C2,7.84,2.34,7.5,2.75,7.5z M8.25,7.5C8.66,7.5,9,7.84,9,8.25C9,8.66,8.66,9,8.25,9S7.5,8.66,7.5,8.25C7.5,7.84,7.84,7.5,8.25,7.5z"
	/>
</svg>
