<?xml version="1.0" encoding="utf-8"?>
<!-- Generator: Adobe Illustrator 23.0.1, SVG Export Plug-In . SVG Version: 6.00 Build 0)  -->
<svg version="1.1" id="cafe-11" xmlns="http://www.w3.org/2000/svg" xmlns:xlink="http://www.w3.org/1999/xlink" x="0px" y="0px"
	 width="11px" height="11px" viewBox="0 0 11 11" enable-background="new 0 0 11 11" xml:space="preserve">
<path fill="#F57C00" d="M7,9.5C7,9.78,6.78,10,6.5,10h-4C2.22,10,2,9.78,2,9.5S2.22,9,2.5,9h4C6.78,9,7,9.22,7,9.5z M8,3H7V2H2v4
	c0,1.38,1.12,2.5,2.5,2.5c0.99,0,1.89-0.59,2.29-1.5H8c1.1,0,2-0.9,2-2S9.1,3,8,3z M8,6H7V4h1c0.55,0,1,0.45,1,1S8.55,6,8,6z"/>
</svg>
