<?xml version="1.0" encoding="utf-8"?>
<!-- Generator: Adobe Illustrator 23.0.1, SVG Export Plug-In . SVG Version: 6.00 Build 0)  -->
<svg version="1.1" id="car-11" xmlns="http://www.w3.org/2000/svg" xmlns:xlink="http://www.w3.org/1999/xlink" x="0px" y="0px"
	 width="11px" height="11px" viewBox="0 0 11 11" enable-background="new 0 0 11 11" xml:space="preserve">
<path fill="#FDD835" d="M9,4L8.11,1.34C8.04,1.14,7.85,1,7.64,1H3.36c-0.21,0-0.4,0.14-0.47,0.34L2,4C1.45,4,1,4.45,1,5v3h1v1
	c0,0.55,0.45,1,1,1s1-0.45,1-1V8h3v1c0,0.55,0.45,1,1,1s1-0.45,1-1V8h1V5C10,4.45,9.55,4,9,4z M3,7C2.45,7,2,6.55,2,6s0.45-1,1-1
	s1,0.45,1,1S3.55,7,3,7z M3,4l0.62-2h3.76L8,4H3z M8,7C7.45,7,7,6.55,7,6s0.45-1,1-1s1,0.45,1,1S8.55,7,8,7z"/>
</svg>
