<?xml version="1.0" encoding="utf-8"?>
<!-- Generator: Adobe Illustrator 23.0.1, SVG Export Plug-In . SVG Version: 6.00 Build 0)  -->
<svg version="1.1" id="ferry-11" xmlns="http://www.w3.org/2000/svg" xmlns:xlink="http://www.w3.org/1999/xlink" x="0px" y="0px"
	 width="11px" height="11px" viewBox="0 0 11 11" enable-background="new 0 0 11 11" xml:space="preserve">
<path fill="#1B4D79" d="M11,9.45v0.77c-0.22,0.01-0.42,0.1-0.57,0.26c-0.23,0.22-0.51,0.38-0.81,0.46
	c-0.51,0.14-1.06,0.03-1.49-0.29L7.8,10.38c-0.27-0.23-0.66-0.23-0.93,0c-0.12,0.09-0.23,0.2-0.35,0.28
	c-0.63,0.45-1.49,0.43-2.1-0.05l-0.33-0.27c-0.25-0.19-0.58-0.19-0.83,0c-0.16,0.11-0.3,0.25-0.46,0.36c-0.6,0.42-1.4,0.42-2,0
	l-0.26-0.21C0.4,10.33,0.21,10.24,0,10.22V9.45c0.22-0.02,0.43,0.02,0.63,0.11C0.86,9.69,1.09,9.84,1.3,10
	c0.18,0.18,0.45,0.26,0.7,0.2c0.09-0.02,0.18-0.07,0.26-0.12c0.13-0.09,0.25-0.2,0.38-0.3c0.62-0.45,1.45-0.45,2.07,0l0.4,0.31
	c0.24,0.18,0.57,0.18,0.81,0l0.4-0.31c0.62-0.46,1.46-0.46,2.08,0l0.38,0.3c0.24,0.18,0.58,0.18,0.82,0L10,9.77
	C10.29,9.55,10.64,9.44,11,9.45z"/>
<path fill="#1B4D79" d="M9,4.09V1.15C8.98,0.51,8.45-0.01,7.81,0H3.19C2.55-0.01,2.02,0.51,2,1.15v2.94L1,5l1.61,2.61
	C3.45,7.06,4.55,7.15,5.3,7.82L5.5,8l0.24-0.24C6.5,7.13,7.57,7.08,8.39,7.62L10,5L9,4.09z M8.19,3.63L5.5,2L2.81,3.61V1.15
	c0-0.01,0-0.03,0-0.04c0.01-0.2,0.18-0.35,0.38-0.34h4.62c0.01,0,0.03,0,0.04,0c0.2,0.01,0.35,0.18,0.34,0.38V3.63z"/>
</svg>
