<?xml version="1.0" encoding="utf-8"?>
<!-- Generator: Adobe Illustrator 23.0.1, SVG Export Plug-In . SVG Version: 6.00 Build 0)  -->
<svg version="1.1" id="rail-light-12" xmlns="http://www.w3.org/2000/svg" xmlns:xlink="http://www.w3.org/1999/xlink" x="0px"
	 y="0px" width="12px" height="12px" viewBox="0 0 12 12" enable-background="new 0 0 12 12" xml:space="preserve">
<g>
	<polygon fill="#00B0B0" points="7.5,5.5 7.5,4 6,3.5 4.5,4 4.5,5.5 6,5.5 	"/>
	<circle fill="#00B0B0" cx="6" cy="7" r="0.5"/>
	<path fill="#00B0B0" d="M10,0H2C0.9,0,0,0.9,0,2v8c0,1.1,0.9,2,2,2h8c1.1,0,2-0.9,2-2V2C12,0.9,11.1,0,10,0z M3.5,3.5c0-1,1-1,1-1
		l1-0.03V1.5h-1C4,1.5,4,1,4,1s0-0.5,0.5-0.5h3C8,0.5,8,1,8,1s0,0.5-0.5,0.5h-1v1h1c0,0,1,0,1,1v3c0,2-2,2-2,2h-1c0,0-2,0-2-2V3.5z
		 M8,11.5l-0.33-1H4.33L4,11.5H2.5L3.33,9h1.5L4.67,9.5h2.67L7.17,9h1.5l0.83,2.5H8z"/>
	<path fill="#FFFFFF" d="M5.5,8.5h1c0,0,2,0,2-2v-3c0-1-1-1-1-1h-1v-1h1C8,1.5,8,1,8,1s0-0.5-0.5-0.5h-3C4,0.5,4,1,4,1
		s0,0.5,0.5,0.5h1v0.97l-1,0.03c0,0-1,0-1,1v3C3.5,8.5,5.5,8.5,5.5,8.5z M6,7.5C5.72,7.5,5.5,7.28,5.5,7S5.72,6.5,6,6.5
		S6.5,6.72,6.5,7S6.28,7.5,6,7.5z M4.5,4L6,3.5L7.5,4v1.5H6H4.5V4z"/>
	<polygon fill="#FFFFFF" points="7.17,9 7.33,9.5 4.67,9.5 4.83,9 3.33,9 2.5,11.5 4,11.5 4.33,10.5 7.67,10.5 8,11.5 9.5,11.5 
		8.67,9 	"/>
</g>
</svg>
