<?xml version="1.0" encoding="utf-8"?>
<!-- Generator: Adobe Illustrator 23.0.1, SVG Export Plug-In . SVG Version: 6.00 Build 0)  -->
<svg version="1.1" id="rail-light-12" xmlns="http://www.w3.org/2000/svg" xmlns:xlink="http://www.w3.org/1999/xlink" x="0px"
	 y="0px" viewBox="0 0 12 12" style="enable-background:new 0 0 12 12;" xml:space="preserve">
<style type="text/css">
	.st0{fill:#663399;}
	.st1{fill:#FFFFFF;}
</style>
<g>
	<polygon class="st0" points="7.5,5.5 7.5,4 6,3.5 4.5,4 4.5,5.5 6,5.5 	"/>
	<circle class="st0" cx="6" cy="7" r="0.5"/>
	<path class="st0" d="M10,0H2C0.9,0,0,0.9,0,2v8c0,1.1,0.9,2,2,2h8c1.1,0,2-0.9,2-2V2C12,0.9,11.1,0,10,0z M3.5,3.5c0-1,1-1,1-1l1,0
		v-1h-1C4,1.5,4,1,4,1s0-0.5,0.5-0.5h3C8,0.5,8,1,8,1s0,0.5-0.5,0.5h-1v1h1c0,0,1,0,1,1v3c0,2-2,2-2,2h-1c0,0-2,0-2-2V3.5z M8,11.5
		l-0.3-1H4.3l-0.3,1H2.5L3.3,9h1.5L4.7,9.5h2.7L7.2,9h1.5l0.8,2.5H8z"/>
	<path class="st1" d="M5.5,8.5h1c0,0,2,0,2-2v-3c0-1-1-1-1-1h-1v-1h1C8,1.5,8,1,8,1s0-0.5-0.5-0.5h-3C4,0.5,4,1,4,1s0,0.5,0.5,0.5h1
		v1l-1,0c0,0-1,0-1,1v3C3.5,8.5,5.5,8.5,5.5,8.5z M6,7.5C5.7,7.5,5.5,7.3,5.5,7c0-0.3,0.2-0.5,0.5-0.5S6.5,6.7,6.5,7
		C6.5,7.3,6.3,7.5,6,7.5z M4.5,4L6,3.5L7.5,4v1.5H6H4.5V4z"/>
	<polygon class="st1" points="7.2,9 7.3,9.5 4.7,9.5 4.8,9 3.3,9 2.5,11.5 4,11.5 4.3,10.5 7.7,10.5 8,11.5 9.5,11.5 8.7,9 	"/>
</g>
</svg>
