<?xml version="1.0" encoding="utf-8"?>
<!-- Generator: Adobe Illustrator 23.0.1, SVG Export Plug-In . SVG Version: 6.00 Build 0)  -->
<svg version="1.1" id="rail-15" xmlns="http://www.w3.org/2000/svg" xmlns:xlink="http://www.w3.org/1999/xlink" x="0px" y="0px"
	 width="15px" height="15px" viewBox="0 0 15 15" enable-background="new 0 0 15 15" xml:space="preserve">
<path id="path3" fill="#999966" d="M3,1C2.45,1,2,1.45,2,2v8c0,0.55,0.45,1,1,1h9c0.55,0,1-0.45,1-1V2c0-0.55-0.45-1-1-1H3z
	 M5.75,1.5L5.75,1.5h3.51c0.14,0,0.25,0.11,0.25,0.25S9.4,2,9.26,2H5.75C5.61,2,5.5,1.89,5.5,1.75S5.61,1.5,5.75,1.5z M3.5,3H7v4
	H3.5C3.22,7,3,6.78,3,6.5v-3C3,3.22,3.22,3,3.5,3z M8,3h3.5C11.78,3,12,3.22,12,3.5v3C12,6.78,11.78,7,11.5,7H8V3z M5,8
	c0.55,0,1,0.45,1,1s-0.45,1-1,1S4,9.55,4,9S4.45,8,5,8z M10,8c0.55,0,1,0.45,1,1s-0.45,1-1,1S9,9.55,9,9S9.45,8,10,8z M10.45,11.99
	c-0.06,0.01-0.13,0.02-0.19,0.06c-0.22,0.12-0.32,0.38-0.23,0.62L10.19,13H4.81l0.13-0.27c0.1-0.26-0.03-0.55-0.29-0.64
	C4.41,12,4.15,12.1,4.03,12.32l-1,2C3.01,14.38,3,14.44,3,14.5C3,14.78,3.22,15,3.5,15c0.18,0,0.35-0.1,0.43-0.26v-0.05H4L4.31,14
	h6.38L11,14.69v0.05C11.08,14.9,11.25,15,11.43,15c0.28,0,0.5-0.22,0.5-0.5c0.02-0.08,0.02-0.16,0-0.24l-1-2
	C10.83,12.08,10.64,11.98,10.45,11.99z"/>
</svg>
